<svg width="100" height="100" viewBox="0 0 100 100" fill="none" xmlns="http://www.w3.org/2000/svg">
<g clip-path="url(#clip0_27_350)">
<rect width="100" height="100" fill="white"/>
<g clip-path="url(#clip1_27_350)">
<path d="M49.6923 51L49.6923 11" stroke="black" stroke-width="1.92308" stroke-linecap="round"/>
<path d="M49.6923 50.2307L49.6923 90.2307" stroke="black" stroke-width="0.769231" stroke-linecap="round"/>
<path d="M43.5385 47.1538L43.5385 14.6923" stroke="black" stroke-width="1.92308" stroke-linecap="round"/>
<path d="M37.3846 44.0769L37.3846 18.3077" stroke="black" stroke-width="1.92308" stroke-linecap="round"/>
<path d="M37.3846 57.1538L37.3846 82.923" stroke="black" stroke-width="0.769231" stroke-linecap="round"/>
<path d="M37.3846 38.6924L37.3846 64.4616" stroke="black" stroke-width="1.15385" stroke-linecap="round"/>
<path d="M31.2307 40.2307L31.2307 21.6153" stroke="black" stroke-width="1.92308" stroke-linecap="round"/>
<path d="M31.2307 61L31.2307 79.6154" stroke="black" stroke-width="0.769231" stroke-linecap="round"/>
<path d="M31.2307 37.9231L31.2307 61" stroke="black" stroke-width="1.15385" stroke-linecap="round"/>
<path d="M25.0769 36.3845L25.0769 25.0768" stroke="black" stroke-width="1.92308" stroke-linecap="round"/>
<path d="M25.0769 52.5386L25.0769 76.3847" stroke="black" stroke-width="0.769231" stroke-linecap="round"/>
<path d="M25.0769 34.0769L25.0769 57.9231" stroke="black" stroke-width="1.15385" stroke-linecap="round"/>
<path d="M18.9231 33.3076L18.9231 28.5384" stroke="black" stroke-width="1.92308" stroke-linecap="round"/>
<path d="M18.9231 51L18.9231 72.5385" stroke="black" stroke-width="0.769231" stroke-linecap="round"/>
<path d="M18.9231 32.5386L18.9231 54.077" stroke="black" stroke-width="1.15385" stroke-linecap="round"/>
<path d="M46.6154 69.4614L46.6154 33.3076" stroke="black" stroke-width="1.15385" stroke-linecap="round"/>
<path d="M46.6154 48.6924L46.6154 12.9232" stroke="black" stroke-width="1.92308" stroke-linecap="round"/>
<path d="M46.6154 52.5386L46.6154 88.3078" stroke="black" stroke-width="0.769231" stroke-linecap="round"/>
<path d="M40.4615 45.6155L40.4615 16.3847" stroke="black" stroke-width="1.92308" stroke-linecap="round"/>
<path d="M40.4615 55.6155L40.4615 84.8462" stroke="black" stroke-width="0.769231" stroke-linecap="round"/>
<path d="M40.4615 37.1538L40.4615 66.3846" stroke="black" stroke-width="1.15385" stroke-linecap="round"/>
<path d="M43.5385 57.9231L43.5385 87.1539" stroke="black" stroke-width="0.769231" stroke-linecap="round"/>
<path d="M43.5385 39.4614L43.5385 68.6922" stroke="black" stroke-width="1.15385" stroke-linecap="round"/>
<path d="M34.3077 41.7693L34.3077 19.8462" stroke="black" stroke-width="1.92308" stroke-linecap="round"/>
<path d="M34.3077 59.4614L34.3077 81.3845" stroke="black" stroke-width="0.769231" stroke-linecap="round"/>
<path d="M34.3077 41L34.3077 62.9231" stroke="black" stroke-width="1.15385" stroke-linecap="round"/>
<path d="M28.1538 37.9231L28.1538 23.3077" stroke="black" stroke-width="1.92308" stroke-linecap="round"/>
<path d="M28.1538 47.1538L28.1538 77.923" stroke="black" stroke-width="0.769231" stroke-linecap="round"/>
<path d="M28.1538 28.6924L28.1538 59.4616" stroke="black" stroke-width="1.15385" stroke-linecap="round"/>
<path d="M22 34.8462L22 26.9231" stroke="black" stroke-width="1.92308" stroke-linecap="round"/>
<path d="M22 50.2307L22 74.0769" stroke="black" stroke-width="0.769231" stroke-linecap="round"/>
<path d="M22 31.7693L22 55.6154" stroke="black" stroke-width="1.15385" stroke-linecap="round"/>
<path d="M15.8462 31.7693L15.8462 30.2308" stroke="black" stroke-width="1.92308" stroke-linecap="round"/>
<path d="M15.8462 50.2307L15.8462 70.9999" stroke="black" stroke-width="0.769231" stroke-linecap="round"/>
<path d="M15.8462 31.7693L15.8462 52.5385" stroke="black" stroke-width="1.15385" stroke-linecap="round"/>
<path d="M49.6923 11L49.6923 51" stroke="black" stroke-width="1.92308" stroke-linecap="round"/>
<path d="M43.5385 14.8462L43.5385 47.3077" stroke="black" stroke-width="1.92308" stroke-linecap="round"/>
<path d="M37.3846 17.9231L37.3846 43.6923" stroke="black" stroke-width="1.92308" stroke-linecap="round"/>
<path d="M31.2307 21.7693L31.2307 40.3847" stroke="black" stroke-width="1.92308" stroke-linecap="round"/>
<path d="M25.0769 25.6155L25.0769 36.9232" stroke="black" stroke-width="1.92308" stroke-linecap="round"/>
<path d="M18.9231 28.6924L18.9231 33.4616" stroke="black" stroke-width="1.92308" stroke-linecap="round"/>
<path d="M46.6154 13.3076L46.6154 49.0768" stroke="black" stroke-width="1.92308" stroke-linecap="round"/>
<path d="M40.4615 16.3845L40.4615 45.6153" stroke="black" stroke-width="1.92308" stroke-linecap="round"/>
<path d="M34.3077 20.2307L34.3077 42.1538" stroke="black" stroke-width="1.92308" stroke-linecap="round"/>
<path d="M28.1538 24.0769L28.1538 38.6923" stroke="black" stroke-width="1.92308" stroke-linecap="round"/>
<path d="M22 27.1538L22 35.0769" stroke="black" stroke-width="1.92308" stroke-linecap="round"/>
<path d="M55.8462 47.231L55.8462 14.7694" stroke="black" stroke-width="1.92308" stroke-linecap="round"/>
<path d="M62 44.1538L62 18.3846" stroke="black" stroke-width="1.92308" stroke-linecap="round"/>
<path d="M62 57.231L62 83.0002" stroke="black" stroke-width="0.769231" stroke-linecap="round"/>
<path d="M62 38.7693L62 64.5385" stroke="black" stroke-width="1.15385" stroke-linecap="round"/>
<path d="M68.1538 40.3079L68.1538 21.6925" stroke="black" stroke-width="1.92308" stroke-linecap="round"/>
<path d="M68.1538 61.0769L68.1538 79.6923" stroke="black" stroke-width="0.769231" stroke-linecap="round"/>
<path d="M68.1538 38L68.1538 61.0769" stroke="black" stroke-width="1.15385" stroke-linecap="round"/>
<path d="M74.3077 36.4617L74.3077 25.154" stroke="black" stroke-width="1.92308" stroke-linecap="round"/>
<path d="M74.3077 52.6155L74.3077 76.4616" stroke="black" stroke-width="0.769231" stroke-linecap="round"/>
<path d="M74.3077 34.1538L74.3077 58" stroke="black" stroke-width="1.15385" stroke-linecap="round"/>
<path d="M80.4615 33.3848L80.4615 28.6155" stroke="black" stroke-width="1.92308" stroke-linecap="round"/>
<path d="M80.4615 51.0769L80.4615 72.6154" stroke="black" stroke-width="0.769231" stroke-linecap="round"/>
<path d="M80.4615 32.6155L80.4615 54.1539" stroke="black" stroke-width="1.15385" stroke-linecap="round"/>
<path d="M52.7693 69.5386L52.7693 33.3847" stroke="black" stroke-width="1.15385" stroke-linecap="round"/>
<path d="M52.7693 48.7693L52.7693 13.0001" stroke="black" stroke-width="1.92308" stroke-linecap="round"/>
<path d="M52.7693 52.6155L52.7693 88.3847" stroke="black" stroke-width="0.769231" stroke-linecap="round"/>
<path d="M58.9231 45.6924L58.9231 16.4616" stroke="black" stroke-width="1.92308" stroke-linecap="round"/>
<path d="M58.9231 55.6924L58.9231 84.9232" stroke="black" stroke-width="0.769231" stroke-linecap="round"/>
<path d="M58.9231 37.231L58.9231 66.4617" stroke="black" stroke-width="1.15385" stroke-linecap="round"/>
<path d="M55.8462 58L55.8462 87.2308" stroke="black" stroke-width="0.769231" stroke-linecap="round"/>
<path d="M55.8462 39.5386L55.8462 68.7693" stroke="black" stroke-width="1.15385" stroke-linecap="round"/>
<path d="M65.0769 41.8462L65.0769 19.9231" stroke="black" stroke-width="1.92308" stroke-linecap="round"/>
<path d="M65.0769 59.5386L65.0769 81.4617" stroke="black" stroke-width="0.769231" stroke-linecap="round"/>
<path d="M65.0769 41.0769L65.0769 63" stroke="black" stroke-width="1.15385" stroke-linecap="round"/>
<path d="M71.2307 38L71.2307 23.3846" stroke="black" stroke-width="1.92308" stroke-linecap="round"/>
<path d="M71.2307 47.231L71.2307 78.0002" stroke="black" stroke-width="0.769231" stroke-linecap="round"/>
<path d="M71.2307 28.7693L71.2307 59.5385" stroke="black" stroke-width="1.15385" stroke-linecap="round"/>
<path d="M77.3846 34.9231L77.3846 27" stroke="black" stroke-width="1.92308" stroke-linecap="round"/>
<path d="M77.3846 50.3079L77.3846 74.154" stroke="black" stroke-width="0.769231" stroke-linecap="round"/>
<path d="M77.3846 31.8462L77.3846 55.6923" stroke="black" stroke-width="1.15385" stroke-linecap="round"/>
<path d="M83.5385 31.8462L83.5385 30.3077" stroke="black" stroke-width="1.92308" stroke-linecap="round"/>
<path d="M83.5385 50.3079L83.5385 71.0771" stroke="black" stroke-width="0.769231" stroke-linecap="round"/>
<path d="M83.5385 31.8462L83.5385 52.6154" stroke="black" stroke-width="1.15385" stroke-linecap="round"/>
<path d="M55.8462 14.9231L55.8462 47.3846" stroke="black" stroke-width="1.92308" stroke-linecap="round"/>
<path d="M62 18L62 43.7692" stroke="black" stroke-width="1.92308" stroke-linecap="round"/>
<path d="M68.1538 21.8462L68.1538 40.4616" stroke="black" stroke-width="1.92308" stroke-linecap="round"/>
<path d="M74.3077 25.6924L74.3077 37.0001" stroke="black" stroke-width="1.92308" stroke-linecap="round"/>
<path d="M80.4615 28.7693L80.4615 33.5385" stroke="black" stroke-width="1.92308" stroke-linecap="round"/>
<path d="M52.7693 13.3848L52.7693 49.154" stroke="black" stroke-width="1.92308" stroke-linecap="round"/>
<path d="M58.9231 16.4617L58.9231 45.6924" stroke="black" stroke-width="1.92308" stroke-linecap="round"/>
<path d="M65.0769 20.3079L65.0769 42.2309" stroke="black" stroke-width="1.92308" stroke-linecap="round"/>
<path d="M71.2307 24.1538L71.2307 38.7692" stroke="black" stroke-width="1.92308" stroke-linecap="round"/>
<path d="M77.3846 27.231L77.3846 35.154" stroke="black" stroke-width="1.92308" stroke-linecap="round"/>
<circle cx="40.4616" cy="40.2308" r="1.53846" fill="#FBD757"/>
<circle cx="58.9231" cy="40.2308" r="1.53846" fill="#FBD757"/>
<circle cx="74.3077" cy="35.6154" r="1.53846" fill="#FBD757"/>
<circle cx="25.0769" cy="35.6154" r="1.53846" fill="#FBD757"/>
<circle cx="40.4616" cy="65.7694" r="1.53846" fill="#FBD757"/>
<circle cx="58.9231" cy="65.7694" r="1.53846" fill="#FBD757"/>
<circle cx="74.3077" cy="69.4616" r="1.53846" fill="#FBD757"/>
<circle cx="25.0769" cy="69.4616" r="1.53846" fill="#FBD757"/>
<circle cx="40.4616" cy="53.0001" r="1.53846" fill="#FBD757"/>
<circle cx="40.4616" cy="25.3077" r="1.53846" fill="#FBD757"/>
<circle cx="58.9231" cy="53.0001" r="1.53846" fill="#FBD757"/>
<circle cx="74.3077" cy="52.5385" r="1.53846" fill="#FBD757"/>
<circle cx="25.0769" cy="52.5385" r="1.53846" fill="#FBD757"/>
<circle cx="58.9231" cy="25.3077" r="1.53846" fill="#FBD757"/>
<circle cx="40.4616" cy="78.5387" r="1.53846" fill="#FBD757"/>
<circle cx="58.9231" cy="78.5387" r="1.53846" fill="#FBD757"/>
<path d="M49.6923 71L49.6923 30.2308" stroke="black" stroke-width="1.15385" stroke-linecap="round"/>
</g>
</g>
<defs>
<clipPath id="clip0_27_350">
<rect width="100" height="100" fill="white"/>
</clipPath>
<clipPath id="clip1_27_350">
<rect width="200" height="84.6154" fill="white" transform="translate(12 8.69238)"/>
</clipPath>
</defs>
</svg>
