<svg width="98" height="110" viewBox="0 0 98 110" fill="none" xmlns="http://www.w3.org/2000/svg">
<g clip-path="url(#clip0_117_2)">
<path d="M49 55L49 3" stroke="black" stroke-width="2.5" stroke-linecap="round"/>
<path d="M49 54L49 106" stroke="black" stroke-linecap="round"/>
<path d="M41 50L41 7.8" stroke="black" stroke-width="2.5" stroke-linecap="round"/>
<path d="M33 46L33 12.5" stroke="black" stroke-width="2.5" stroke-linecap="round"/>
<path d="M33 63L33 96.5" stroke="black" stroke-linecap="round"/>
<path d="M33 39L33 72.5" stroke="black" stroke-width="1.5" stroke-linecap="round"/>
<path d="M25 41L25 16.8" stroke="black" stroke-width="2.5" stroke-linecap="round"/>
<path d="M25 68L25 92.2" stroke="black" stroke-linecap="round"/>
<path d="M25 38L25 68" stroke="black" stroke-width="1.5" stroke-linecap="round"/>
<path d="M17 36L17 21.3" stroke="black" stroke-width="2.5" stroke-linecap="round"/>
<path d="M17 57L17 88" stroke="black" stroke-linecap="round"/>
<path d="M17 33L17 64" stroke="black" stroke-width="1.5" stroke-linecap="round"/>
<path d="M9 32L9 25.8" stroke="black" stroke-width="2.5" stroke-linecap="round"/>
<path d="M9 55L9 83" stroke="black" stroke-linecap="round"/>
<path d="M9 31L9 59" stroke="black" stroke-width="1.5" stroke-linecap="round"/>
<path d="M45 79L45 32" stroke="black" stroke-width="1.5" stroke-linecap="round"/>
<path d="M45 52L45 5.5" stroke="black" stroke-width="2.5" stroke-linecap="round"/>
<path d="M45 57L45 103.5" stroke="black" stroke-linecap="round"/>
<path d="M37 48L37 10" stroke="black" stroke-width="2.5" stroke-linecap="round"/>
<path d="M37 61L37 99" stroke="black" stroke-linecap="round"/>
<path d="M37 37L37 75" stroke="black" stroke-width="1.5" stroke-linecap="round"/>
<path d="M41 64L41 102" stroke="black" stroke-linecap="round"/>
<path d="M41 40L41 78" stroke="black" stroke-width="1.5" stroke-linecap="round"/>
<path d="M29 43L29 14.5" stroke="black" stroke-width="2.5" stroke-linecap="round"/>
<path d="M29 66L29 94.5" stroke="black" stroke-linecap="round"/>
<path d="M29 42L29 70.5" stroke="black" stroke-width="1.5" stroke-linecap="round"/>
<path d="M21 38L21 19" stroke="black" stroke-width="2.5" stroke-linecap="round"/>
<path d="M21 50L21 90" stroke="black" stroke-linecap="round"/>
<path d="M21 26L21 66" stroke="black" stroke-width="1.5" stroke-linecap="round"/>
<path d="M13 34L13 23.7" stroke="black" stroke-width="2.5" stroke-linecap="round"/>
<path d="M13 54L13 85" stroke="black" stroke-linecap="round"/>
<path d="M13 30L13 61" stroke="black" stroke-width="1.5" stroke-linecap="round"/>
<path d="M5 30L5 28" stroke="black" stroke-width="2.5" stroke-linecap="round"/>
<path d="M5 54L5 81" stroke="black" stroke-linecap="round"/>
<path d="M5 30L5 57" stroke="black" stroke-width="1.5" stroke-linecap="round"/>
<path d="M49 3L49 55" stroke="black" stroke-width="2.5" stroke-linecap="round"/>
<path d="M41 8L41 50.2" stroke="black" stroke-width="2.5" stroke-linecap="round"/>
<path d="M33 12L33 45.5" stroke="black" stroke-width="2.5" stroke-linecap="round"/>
<path d="M25 17L25 41.2" stroke="black" stroke-width="2.5" stroke-linecap="round"/>
<path d="M17 22L17 36.7" stroke="black" stroke-width="2.5" stroke-linecap="round"/>
<path d="M9 26L9 32.2" stroke="black" stroke-width="2.5" stroke-linecap="round"/>
<path d="M45 6L45 52.5" stroke="black" stroke-width="2.5" stroke-linecap="round"/>
<path d="M37 10L37 48" stroke="black" stroke-width="2.5" stroke-linecap="round"/>
<path d="M29 15L29 43.5" stroke="black" stroke-width="2.5" stroke-linecap="round"/>
<path d="M21 20L21 39" stroke="black" stroke-width="2.5" stroke-linecap="round"/>
<path d="M13 24L13 34.3" stroke="black" stroke-width="2.5" stroke-linecap="round"/>
<path d="M57 50.1001L57 7.9001" stroke="black" stroke-width="2.5" stroke-linecap="round"/>
<path d="M65 46.1001L65 12.6001" stroke="black" stroke-width="2.5" stroke-linecap="round"/>
<path d="M65 63.1001L65 96.6001" stroke="black" stroke-linecap="round"/>
<path d="M65 39.1001L65 72.6001" stroke="black" stroke-width="1.5" stroke-linecap="round"/>
<path d="M73 41.1001L73 16.9001" stroke="black" stroke-width="2.5" stroke-linecap="round"/>
<path d="M73 68.1001L73 92.3001" stroke="black" stroke-linecap="round"/>
<path d="M73 38.1001L73 68.1001" stroke="black" stroke-width="1.5" stroke-linecap="round"/>
<path d="M81 36.1001L81 21.4001" stroke="black" stroke-width="2.5" stroke-linecap="round"/>
<path d="M81 57.1001L81 88.1001" stroke="black" stroke-linecap="round"/>
<path d="M81 33.1001L81 64.1001" stroke="black" stroke-width="1.5" stroke-linecap="round"/>
<path d="M89 32.1001L89 25.9001" stroke="black" stroke-width="2.5" stroke-linecap="round"/>
<path d="M89 55.1001L89 83.1001" stroke="black" stroke-linecap="round"/>
<path d="M89 31.1001L89 59.1001" stroke="black" stroke-width="1.5" stroke-linecap="round"/>
<path d="M53 79.1001L53 32.1001" stroke="black" stroke-width="1.5" stroke-linecap="round"/>
<path d="M53 52.1001L53 5.6001" stroke="black" stroke-width="2.5" stroke-linecap="round"/>
<path d="M53 57.1001L53 103.6" stroke="black" stroke-linecap="round"/>
<path d="M61 48.1001L61 10.1001" stroke="black" stroke-width="2.5" stroke-linecap="round"/>
<path d="M61 61.1001L61 99.1001" stroke="black" stroke-linecap="round"/>
<path d="M61 37.1001L61 75.1001" stroke="black" stroke-width="1.5" stroke-linecap="round"/>
<path d="M57 64.1001L57 102.1" stroke="black" stroke-linecap="round"/>
<path d="M57 40.1001L57 78.1001" stroke="black" stroke-width="1.5" stroke-linecap="round"/>
<path d="M69 43.1001L69 14.6001" stroke="black" stroke-width="2.5" stroke-linecap="round"/>
<path d="M69 66.1001L69 94.6001" stroke="black" stroke-linecap="round"/>
<path d="M69 42.1001L69 70.6001" stroke="black" stroke-width="1.5" stroke-linecap="round"/>
<path d="M77 38.1001L77 19.1001" stroke="black" stroke-width="2.5" stroke-linecap="round"/>
<path d="M77 50.1001L77 90.1001" stroke="black" stroke-linecap="round"/>
<path d="M77 26.1001L77 66.1001" stroke="black" stroke-width="1.5" stroke-linecap="round"/>
<path d="M85 34.1001L85 23.8001" stroke="black" stroke-width="2.5" stroke-linecap="round"/>
<path d="M85 54.1001L85 85.1001" stroke="black" stroke-linecap="round"/>
<path d="M85 30.1001L85 61.1001" stroke="black" stroke-width="1.5" stroke-linecap="round"/>
<path d="M93 30.1001L93 28.1001" stroke="black" stroke-width="2.5" stroke-linecap="round"/>
<path d="M93 54.1001L93 81.1001" stroke="black" stroke-linecap="round"/>
<path d="M93 30.1001L93 57.1001" stroke="black" stroke-width="1.5" stroke-linecap="round"/>
<path d="M57 8.1001L57 50.3001" stroke="black" stroke-width="2.5" stroke-linecap="round"/>
<path d="M65 12.1001L65 45.6001" stroke="black" stroke-width="2.5" stroke-linecap="round"/>
<path d="M73 17.1001L73 41.3001" stroke="black" stroke-width="2.5" stroke-linecap="round"/>
<path d="M81 22.1001L81 36.8001" stroke="black" stroke-width="2.5" stroke-linecap="round"/>
<path d="M89 26.1001L89 32.3001" stroke="black" stroke-width="2.5" stroke-linecap="round"/>
<path d="M53 6.1001L53 52.6001" stroke="black" stroke-width="2.5" stroke-linecap="round"/>
<path d="M61 10.1001L61 48.1001" stroke="black" stroke-width="2.5" stroke-linecap="round"/>
<path d="M69 15.1001L69 43.6001" stroke="black" stroke-width="2.5" stroke-linecap="round"/>
<path d="M77 20.1001L77 39.1001" stroke="black" stroke-width="2.5" stroke-linecap="round"/>
<path d="M85 24.1001L85 34.4001" stroke="black" stroke-width="2.5" stroke-linecap="round"/>
<circle cx="37" cy="41" r="2" fill="#FBD757"/>
<circle cx="61" cy="41" r="2" fill="#FBD757"/>
<circle cx="81" cy="35" r="2" fill="#FBD757"/>
<circle cx="17" cy="35" r="2" fill="#FBD757"/>
<circle cx="37" cy="74.2002" r="2" fill="#FBD757"/>
<circle cx="61" cy="74.2002" r="2" fill="#FBD757"/>
<circle cx="81" cy="79" r="2" fill="#FBD757"/>
<circle cx="17" cy="79" r="2" fill="#FBD757"/>
<circle cx="37" cy="57.6001" r="2" fill="#FBD757"/>
<circle cx="37" cy="21.6001" r="2" fill="#FBD757"/>
<circle cx="61" cy="57.6001" r="2" fill="#FBD757"/>
<circle cx="81" cy="57" r="2" fill="#FBD757"/>
<circle cx="17" cy="57" r="2" fill="#FBD757"/>
<circle cx="61" cy="21.6001" r="2" fill="#FBD757"/>
<circle cx="37" cy="90.8003" r="2" fill="#FBD757"/>
<circle cx="61" cy="90.8003" r="2" fill="#FBD757"/>
<path d="M49 81L49 28" stroke="black" stroke-width="1.5" stroke-linecap="round"/>
</g>
<defs>
<clipPath id="clip0_117_2">
<rect width="98" height="110" fill="white"/>
</clipPath>
</defs>
</svg>
